<svg xmlns="http://www.w3.org/2000/svg" viewBox="0 0 1200 720" role="img" aria-labelledby="title desc">
  <title id="title">地下入口場景圖</title>
  <desc id="desc">一座發著藍綠微光的地下石門入口，前方有金色火光與石階。</desc>
  <defs>
    <linearGradient id="sky" x1="0" x2="0" y1="0" y2="1"><stop offset="0" stop-color="#172226"/><stop offset="0.55" stop-color="#101417"/><stop offset="1" stop-color="#080a0d"/></linearGradient>
    <radialGradient id="gateGlow" cx="50%" cy="42%" r="44%"><stop offset="0" stop-color="#6ff0d8" stop-opacity="0.72"/><stop offset="0.48" stop-color="#287b76" stop-opacity="0.22"/><stop offset="1" stop-color="#101417" stop-opacity="0"/></radialGradient>
    <radialGradient id="torchGlow" cx="50%" cy="84%" r="38%"><stop offset="0" stop-color="#e2b75e" stop-opacity="0.76"/><stop offset="0.5" stop-color="#9c5b32" stop-opacity="0.22"/><stop offset="1" stop-color="#080a0d" stop-opacity="0"/></radialGradient>
    <filter id="softBlur"><feGaussianBlur stdDeviation="18"/></filter>
  </defs>
  <rect width="1200" height="720" fill="url(#sky)"/>
  <path d="M0 500 C180 450 250 410 380 430 C520 452 610 392 760 412 C900 430 1000 395 1200 440 L1200 720 L0 720 Z" fill="#171b20"/>
  <path d="M0 590 C160 545 310 565 460 535 C620 502 760 560 910 532 C1040 508 1120 542 1200 522 L1200 720 L0 720 Z" fill="#0f1215"/>
  <ellipse cx="600" cy="318" rx="330" ry="260" fill="url(#gateGlow)" filter="url(#softBlur)"/>
  <ellipse cx="600" cy="610" rx="390" ry="160" fill="url(#torchGlow)" filter="url(#softBlur)"/>
  <path d="M315 604 V350 C315 190 442 88 600 88 C758 88 885 190 885 350 V604 Z" fill="#242a31" stroke="#46515a" stroke-width="18"/>
  <path d="M386 604 V360 C386 238 476 158 600 158 C724 158 814 238 814 360 V604 Z" fill="#101417" stroke="#50c2aa" stroke-opacity="0.7" stroke-width="10"/>
  <path d="M440 604 V378 C440 282 506 220 600 220 C694 220 760 282 760 378 V604 Z" fill="#14191e"/>
  <path d="M600 220 V604" stroke="#2f3b42" stroke-width="8"/>
  <path d="M440 382 H760 M468 300 H732 M512 244 H688" stroke="#2f3b42" stroke-width="7" stroke-linecap="round"/>
  <path d="M350 604 H850 L930 720 H270 Z" fill="#1f252b"/>
  <path d="M392 634 H808 M350 674 H850" stroke="#343d45" stroke-width="8" stroke-linecap="round"/>
  <g fill="#e2b75e"><path d="M276 504 c20 30 18 62 -2 86 c-20 -24 -22 -56 2 -86z"/><path d="M924 504 c20 30 18 62 -2 86 c-20 -24 -22 -56 2 -86z"/></g>
  <g stroke="#aeb7b2" stroke-opacity="0.35" stroke-width="5" stroke-linecap="round"><path d="M155 455 l95 -28"/><path d="M1004 432 l84 24"/><path d="M176 574 l96 -22"/><path d="M954 572 l86 -30"/></g>
</svg>
